# xmcd
#
# Track frame offsets:
#  150
#  18618
#  48712
#  65927
#  87006
#  112574
#  132734
#  147720
#  166977
#  187898
#  203334
#  223599
#  249350
#  269241
#
# Disc length: 3798 seconds
#
# Revision: 0
# Processed by: cddbd v1.5.1PL2 Copyright (c) Steve Scherf et al.
# Submitted via: Collectorz.com_Music_Collector 6.10
#
DISCID=d50ed40e
DTITLE=A Crossroadsdeal - When It Al Comes Down
DYEAR=1999
DGENRE=Blues
TTITLE0=All That Bluesmen
TTITLE1=Long Distance Call
TTITLE2=Makin' Whoopee
TTITLE3=Hard Hard Way
TTITLE4=Saturday Night
TTITLE5=When It All Comes Down
TTITLE6=Poor Me
TTITLE7=Somebody's Readin' My Mail
TTITLE8=Boogie Breaks
TTITLE9=Crapped Out Again
TTITLE10=Tell Me Mama
TTITLE11=She's Stalkin' Me
TTITLE12=Goodbye Baby
TTITLE13=We Gotta Go Home
EXTD=
EXTT0=
EXTT1=
EXTT2=
EXTT3=
EXTT4=
EXTT5=
EXTT6=
EXTT7=
EXTT8=
EXTT9=
EXTT10=
EXTT11=
EXTT12=
EXTT13=
PLAYORDER=
